<svg width="50" height="49" viewBox="0 0 50 49" fill="none" xmlns="http://www.w3.org/2000/svg">
<path d="M49.1448 24.4888C49.1448 27.7047 48.5096 30.8891 47.2754 33.8602C46.0412 36.8313 44.2322 39.531 41.9517 41.805C39.6713 44.079 36.9639 45.8828 33.9843 47.1135C31.0047 48.3441 27.8112 48.9776 24.5861 48.9776C18.0727 48.9776 11.8261 46.3975 7.22044 41.805C2.61478 37.2124 0.0273438 30.9836 0.0273438 24.4888C0.0273438 17.9939 2.61478 11.7651 7.22044 7.1726C11.8261 2.58006 18.0727 0 24.5861 0C27.8112 0 31.0047 0.633422 33.9843 1.8641C36.9639 3.09478 39.6713 4.89861 41.9517 7.1726C44.2322 9.44659 46.0412 12.1462 47.2754 15.1173C48.5096 18.0884 49.1448 21.2729 49.1448 24.4888ZM21.9912 12.1032C21.9912 12.1537 21.9653 12.1795 21.9135 12.1807C18.8892 12.2718 16.3024 13.2505 14.1529 15.117C7.14196 21.2 9.42034 32.8363 18.5079 35.5548C18.5331 35.5626 18.5549 35.5788 18.5697 35.6006C18.5845 35.6224 18.5914 35.6485 18.5894 35.6747L18.4876 36.9297C18.4863 36.946 18.4888 36.9624 18.4948 36.9776C18.5007 36.9929 18.5101 37.0066 18.5221 37.0179C18.5341 37.0292 18.5485 37.0378 18.5643 37.0429C18.5801 37.0481 18.5969 37.0498 18.6134 37.0478C19.7363 36.9088 20.8122 36.608 21.8413 36.1454C21.8577 36.1383 21.8755 36.1353 21.8933 36.1367C21.911 36.1381 21.9281 36.1438 21.943 36.1533C21.9579 36.1629 21.9701 36.1759 21.9785 36.1913C21.9869 36.2066 21.9913 36.2238 21.9912 36.2413V40.248C21.9912 40.3145 22.0239 40.3409 22.0893 40.3274L27.0385 39.3123C27.0771 39.3047 27.1118 39.2837 27.1368 39.2531C27.1617 39.2225 27.1754 39.1841 27.1754 39.1444V36.197C27.1754 36.1195 27.2143 36.0795 27.292 36.0771C31.2331 35.9553 34.3554 34.413 36.6591 31.4502C42.678 23.7118 37.181 12.297 27.3142 12.2066C27.2229 12.2053 27.1773 12.1592 27.1773 12.0681L27.1736 9.15768C27.1736 9.09124 27.1415 9.06479 27.0773 9.07833L22.1374 10.0842C22.0961 10.0927 22.059 10.1151 22.0324 10.1477C22.0057 10.1803 21.9912 10.2211 21.9912 10.2632V12.1032Z" fill="#2A2D2C"/>
<path d="M21.9912 12.1032V10.2632C21.9912 10.2211 22.0057 10.1803 22.0324 10.1477C22.059 10.1151 22.0961 10.0927 22.1374 10.0842L27.0773 9.07833C27.1415 9.06479 27.1736 9.09124 27.1736 9.15768L27.1773 12.0681C27.1773 12.1592 27.2229 12.2053 27.3142 12.2066C37.181 12.297 42.678 23.7118 36.6591 31.4502C34.3554 34.413 31.2331 35.9553 27.292 36.0771C27.2143 36.0795 27.1754 36.1195 27.1754 36.197V39.1444C27.1754 39.1841 27.1617 39.2225 27.1368 39.2531C27.1118 39.2837 27.0771 39.3047 27.0385 39.3123L22.0893 40.3274C22.0239 40.3409 21.9912 40.3145 21.9912 40.248V36.2413C21.9913 36.2238 21.9869 36.2066 21.9785 36.1913C21.9701 36.1759 21.9579 36.1629 21.943 36.1533C21.9281 36.1438 21.911 36.1381 21.8933 36.1367C21.8755 36.1353 21.8577 36.1383 21.8413 36.1454C20.8122 36.608 19.7363 36.9088 18.6134 37.0478C18.5969 37.0498 18.5801 37.0481 18.5643 37.0429C18.5485 37.0378 18.5341 37.0292 18.5221 37.0179C18.5101 37.0066 18.5007 36.9929 18.4948 36.9776C18.4888 36.9624 18.4863 36.946 18.4876 36.9297L18.5894 35.6747C18.5914 35.6485 18.5845 35.6224 18.5697 35.6006C18.5549 35.5788 18.5331 35.5626 18.5079 35.5548C9.42034 32.8363 7.14196 21.2 14.1529 15.117C16.3024 13.2505 18.8892 12.2718 21.9135 12.1807C21.9653 12.1795 21.9912 12.1537 21.9912 12.1032ZM27.1625 16.7503L27.1884 31.5333C27.1884 31.5416 27.1917 31.5496 27.1976 31.5555C27.2035 31.5614 27.2115 31.5647 27.2198 31.5647H27.2531C29.1403 31.5614 30.9489 30.7781 32.281 29.3871C33.6131 27.9962 34.3598 26.1114 34.3567 24.1474V24.1141C34.3551 23.1414 34.1695 22.1785 33.8103 21.2804C33.4512 20.3823 32.9256 19.5666 32.2636 18.8799C31.6015 18.1932 30.816 17.6489 29.9519 17.2781C29.0877 16.9073 28.1619 16.7173 27.2272 16.719H27.1939C27.1856 16.719 27.1776 16.7223 27.1717 16.7282C27.1658 16.734 27.1625 16.742 27.1625 16.7503ZM21.9912 31.5444V16.7688C21.9912 16.7644 21.9904 16.7601 21.9887 16.7561C21.987 16.752 21.9845 16.7484 21.9815 16.7453C21.9784 16.7422 21.9747 16.7398 21.9706 16.7381C21.9666 16.7364 21.9623 16.7356 21.9579 16.7356H21.9375C21.0025 16.7356 20.0766 16.9268 19.2128 17.2982C18.3489 17.6697 17.564 18.2141 16.9028 18.9005C16.2417 19.5868 15.7172 20.4017 15.3594 21.2985C15.0015 22.1952 14.8174 23.1564 14.8174 24.1271V24.1861C14.8174 26.1464 15.5675 28.0265 16.9028 29.4127C18.2381 30.7988 20.0492 31.5776 21.9375 31.5776H21.9579C21.9623 31.5776 21.9666 31.5767 21.9706 31.5751C21.9747 31.5734 21.9784 31.5709 21.9815 31.5679C21.9845 31.5648 21.987 31.5611 21.9887 31.5571C21.9904 31.5531 21.9912 31.5487 21.9912 31.5444Z" fill="white"/>
<path d="M27.1625 16.7503C27.1625 16.742 27.1658 16.734 27.1717 16.7282C27.1776 16.7223 27.1856 16.719 27.1939 16.719H27.2272C28.1619 16.7173 29.0877 16.9073 29.9519 17.2781C30.816 17.6489 31.6015 18.1932 32.2636 18.8799C32.9256 19.5666 33.4512 20.3823 33.8103 21.2804C34.1695 22.1785 34.3551 23.1414 34.3567 24.1141V24.1474C34.3598 26.1114 33.6131 27.9962 32.281 29.3871C30.9489 30.7781 29.1403 31.5614 27.2531 31.5647H27.2198C27.2115 31.5647 27.2035 31.5614 27.1976 31.5555C27.1917 31.5496 27.1884 31.5416 27.1884 31.5333L27.1625 16.7503Z" fill="#2A2D2C"/>
<path d="M21.9912 31.5444C21.9912 31.5487 21.9904 31.5531 21.9887 31.5571C21.987 31.5611 21.9845 31.5648 21.9815 31.5679C21.9784 31.5709 21.9747 31.5734 21.9706 31.5751C21.9666 31.5767 21.9623 31.5776 21.9579 31.5776H21.9375C20.0492 31.5776 18.2381 30.7988 16.9028 29.4127C15.5675 28.0265 14.8174 26.1464 14.8174 24.1861V24.1271C14.8174 23.1564 15.0015 22.1952 15.3594 21.2985C15.7172 20.4017 16.2417 19.5868 16.9028 18.9005C17.564 18.2141 18.3489 17.6697 19.2128 17.2982C20.0766 16.9268 21.0025 16.7356 21.9375 16.7356H21.9579C21.9623 16.7356 21.9666 16.7364 21.9706 16.7381C21.9747 16.7398 21.9784 16.7422 21.9815 16.7453C21.9845 16.7484 21.987 16.752 21.9887 16.7561C21.9904 16.7601 21.9912 16.7644 21.9912 16.7688V31.5444Z" fill="#2A2D2C"/>
</svg>
