<svg width="124" height="133" viewBox="0 0 124 133" fill="none" xmlns="http://www.w3.org/2000/svg">
<g clip-path="url(#clip0_1_362)">
<path d="M96.3293 62.9131C97.9564 68.9858 98.4093 75.3093 97.662 81.5227C96.9147 87.7361 94.9819 93.7178 91.9739 99.126C88.9659 104.534 84.9416 109.263 80.1309 113.043C75.3202 116.823 69.8171 119.579 63.936 121.155C52.0586 124.338 39.3623 122.518 28.64 116.096C17.9177 109.675 10.0478 99.1769 6.76162 86.9127C3.47543 74.6485 5.04213 61.6223 11.117 50.6998C17.1919 39.7773 27.2774 31.8532 39.1549 28.6706C45.036 27.0948 51.18 26.7305 57.2361 27.5985C63.2922 28.4665 69.1418 30.5498 74.4509 33.7295C79.7601 36.9093 84.4247 41.1231 88.1786 46.1304C91.9325 51.1377 94.7021 56.8405 96.3293 62.9131ZM40.5469 52.7931C40.5724 52.8883 40.5382 52.9498 40.4443 52.9774C34.9755 54.6271 30.7535 57.7392 27.7783 62.314C18.0714 77.2262 28.1137 98.0858 46.0608 98.7788C46.1107 98.7813 46.1585 98.8012 46.1965 98.8351C46.2345 98.869 46.2604 98.915 46.27 98.9655L46.7193 101.385C46.7253 101.416 46.7381 101.446 46.7566 101.472C46.7752 101.498 46.7992 101.519 46.8269 101.535C46.8545 101.55 46.8851 101.559 46.9166 101.561C46.948 101.563 46.9794 101.558 47.0086 101.547C48.9858 100.735 50.7956 99.6417 52.4381 98.2653C52.4643 98.2439 52.4954 98.2296 52.5285 98.2235C52.5616 98.2175 52.5956 98.2199 52.6276 98.2307C52.6595 98.2414 52.6884 98.26 52.7115 98.2849C52.7346 98.3098 52.7513 98.3402 52.76 98.3732L54.7873 105.939C54.8209 106.065 54.8939 106.099 55.0064 106.041L63.5177 101.706C63.5842 101.673 63.637 101.616 63.667 101.546C63.6971 101.476 63.7025 101.397 63.6825 101.322L62.1912 95.7565C62.152 95.6101 62.2026 95.5157 62.3431 95.473C69.4682 93.3174 74.3816 88.8794 77.0833 82.1593C84.1437 64.6058 68.3441 45.737 50.3059 50.3873C50.1387 50.4296 50.0322 50.3648 49.9861 50.1929L48.5067 44.6988C48.4731 44.5734 48.4012 44.5391 48.2911 44.596L39.7919 48.9091C39.7209 48.9453 39.6646 49.0058 39.6325 49.0804C39.6004 49.155 39.5946 49.2391 39.6159 49.3185L40.5469 52.7931Z" fill="#5D1A1F"/>
<path d="M40.5469 52.7931L39.6159 49.3185C39.5946 49.2391 39.6004 49.155 39.6325 49.0804C39.6646 49.0058 39.7209 48.9453 39.7919 48.9091L48.2911 44.596C48.4012 44.5391 48.4731 44.5734 48.5067 44.6988L49.9861 50.1929C50.0322 50.3648 50.1387 50.4296 50.3059 50.3873C68.3441 45.737 84.1437 64.6058 77.0833 82.1593C74.3816 88.8794 69.4682 93.3174 62.3431 95.473C62.2026 95.5157 62.152 95.6101 62.1912 95.7565L63.6825 101.322C63.7025 101.397 63.6971 101.476 63.667 101.546C63.637 101.616 63.5842 101.673 63.5177 101.706L55.0064 106.041C54.8939 106.099 54.8209 106.065 54.7873 105.939L52.76 98.3732C52.7513 98.3402 52.7346 98.3098 52.7115 98.2849C52.6884 98.26 52.6595 98.2414 52.6276 98.2307C52.5956 98.2199 52.5616 98.2175 52.5285 98.2235C52.4954 98.2296 52.4643 98.2439 52.4381 98.2653C50.7956 99.6417 48.9858 100.735 47.0086 101.547C46.9794 101.558 46.948 101.563 46.9166 101.561C46.8851 101.559 46.8545 101.55 46.8269 101.535C46.7992 101.519 46.7752 101.498 46.7566 101.472C46.7381 101.446 46.7253 101.416 46.7193 101.385L46.27 98.9655C46.2604 98.915 46.2345 98.869 46.1965 98.8351C46.1585 98.8012 46.1107 98.7813 46.0608 98.7788C28.1137 98.0858 18.0714 77.2262 27.7783 62.314C30.7535 57.7392 34.9755 54.6271 40.4443 52.9774C40.5382 52.9498 40.5724 52.8883 40.5469 52.7931ZM52.3281 59.0415L59.8551 86.9436C59.8593 86.9593 59.8694 86.9728 59.8832 86.981C59.8969 86.9892 59.9131 86.9916 59.9284 86.9875L59.9891 86.9712C63.4288 86.0429 66.3305 83.6802 68.0559 80.4027C69.7813 77.1252 70.1891 73.2013 69.1897 69.4942L69.1729 69.4314C68.6779 67.5954 67.8522 65.8679 66.7429 64.3475C65.6336 62.827 64.2624 61.5436 62.7077 60.5703C61.153 59.5971 59.4452 58.9531 57.6818 58.6752C55.9184 58.3973 54.1339 58.4909 52.4304 58.9506L52.3696 58.9669C52.3544 58.971 52.3415 58.9811 52.3337 58.9951C52.3259 59.0091 52.3239 59.0258 52.3281 59.0415ZM50.3835 89.5039L42.9075 61.6031C42.9053 61.5949 42.9015 61.5872 42.8965 61.5804C42.8914 61.5736 42.885 61.5678 42.8778 61.5635C42.8706 61.5592 42.8627 61.5564 42.8545 61.5552C42.8463 61.554 42.8379 61.5545 42.83 61.5567L42.7928 61.5666C41.0878 62.0235 39.4961 62.8369 38.1088 63.9604C36.7214 65.0839 35.5656 66.4956 34.7072 68.1147C33.8488 69.7338 33.3047 71.5287 33.106 73.3969C32.9072 75.2652 33.0577 77.1701 33.5488 79.003L33.5787 79.1145C34.5705 82.8163 36.8897 85.9998 40.0261 87.9649C43.1624 89.93 46.8589 90.5156 50.3024 89.5929L50.3396 89.583C50.3476 89.5808 50.355 89.5771 50.3615 89.5719C50.3681 89.5668 50.3735 89.5604 50.3776 89.5531C50.3817 89.5457 50.3843 89.5376 50.3853 89.5292C50.3863 89.5208 50.3857 89.5122 50.3835 89.5039Z" fill="white"/>
<path d="M52.3281 59.0415C52.3239 59.0258 52.3259 59.0091 52.3337 58.9951C52.3415 58.9811 52.3544 58.971 52.3696 58.9669L52.4304 58.9506C54.1339 58.4909 55.9184 58.3973 57.6818 58.6752C59.4452 58.9531 61.153 59.5971 62.7077 60.5703C64.2624 61.5436 65.6336 62.827 66.7429 64.3475C67.8522 65.8679 68.6779 67.5954 69.1729 69.4314L69.1897 69.4942C70.1891 73.2013 69.7813 77.1252 68.0559 80.4027C66.3305 83.6802 63.4288 86.0429 59.9891 86.9712L59.9284 86.9875C59.9131 86.9916 59.8969 86.9892 59.8832 86.981C59.8694 86.9728 59.8593 86.9593 59.8551 86.9436L52.3281 59.0415Z" fill="#5D1A1F"/>
<path d="M50.3835 89.5039C50.3857 89.5122 50.3863 89.5208 50.3853 89.5292C50.3843 89.5376 50.3817 89.5457 50.3776 89.5531C50.3735 89.5604 50.3681 89.5668 50.3615 89.5719C50.355 89.5771 50.3476 89.5808 50.3396 89.583L50.3024 89.5929C46.8589 90.5156 43.1624 89.93 40.0261 87.9649C36.8897 85.9998 34.5705 82.8163 33.5787 79.1145L33.5488 79.003C33.0577 77.1701 32.9072 75.2652 33.106 73.3969C33.3047 71.5287 33.8488 69.7338 34.7072 68.1147C35.5656 66.4956 36.7214 65.0839 38.1088 63.9604C39.4961 62.8369 41.0878 62.0235 42.7928 61.5666L42.83 61.5567C42.8379 61.5545 42.8463 61.554 42.8545 61.5552C42.8627 61.5564 42.8706 61.5592 42.8778 61.5635C42.885 61.5678 42.8914 61.5736 42.8965 61.5804C42.9015 61.5872 42.9053 61.5949 42.9075 61.6031L50.3835 89.5039Z" fill="#5D1A1F"/>
</g>
<defs>
<clipPath id="clip0_1_362">
<rect x="0.699158" y="25.7712" width="96.9401" height="110.884" rx="48.4701" transform="rotate(-15 0.699158 25.7712)" fill="white"/>
</clipPath>
</defs>
</svg>
