<svg width="45" height="24" viewBox="0 0 45 24" fill="none" xmlns="http://www.w3.org/2000/svg">
<path d="M16.4766 21.4346H28.6181V2.56641H16.4766V21.4346Z" fill="#FF5F00"/>
<path d="M17.2503 11.9994C17.2471 10.1841 17.7225 8.39193 18.6405 6.75777C19.5586 5.12362 20.8954 3.69014 22.5503 2.56532C20.4942 1.17398 18.0249 0.308752 15.4247 0.0685109C12.8244 -0.17173 10.1981 0.222712 7.84597 1.20676C5.4938 2.19081 3.51066 3.72476 2.12322 5.63328C0.735772 7.5418 0 9.74789 0 11.9994C0 14.2509 0.735772 16.457 2.12322 18.3655C3.51066 20.274 5.4938 21.808 7.84597 22.792C10.1981 23.7761 12.8244 24.1705 15.4247 23.9303C18.0249 23.6901 20.4942 22.8248 22.5503 21.4335C20.8956 20.3085 19.5589 18.875 18.6408 17.2409C17.7228 15.6068 17.2474 13.8146 17.2503 11.9994Z" fill="#EB001B"/>
<path d="M45.0003 12C45.0146 14.2469 44.2919 16.4515 42.9153 18.3605C41.5387 20.2694 39.5642 21.805 37.2189 22.7905C34.8736 23.7761 32.2527 24.1717 29.6578 23.9317C27.063 23.6918 24.5995 22.826 22.5508 21.4341C24.2032 20.3074 25.5382 18.8735 26.456 17.2398C27.3737 15.606 27.8505 13.8148 27.8505 12C27.8505 10.1852 27.3737 8.39396 26.456 6.76023C25.5382 5.12651 24.2032 3.69264 22.5508 2.56591C24.5995 1.17398 27.063 0.30823 29.6578 0.0682649C32.2527 -0.171701 34.8736 0.22386 37.2189 1.20945C39.5642 2.19504 41.5387 3.73062 42.9153 5.63953C44.2919 7.54844 45.0146 9.75314 45.0003 12Z" fill="#F79E1B"/>
</svg>
