<svg width="63" height="24" viewBox="0 0 63 24" fill="none" xmlns="http://www.w3.org/2000/svg">
<path d="M41.0424 0.000448589C36.5677 0.000448589 32.5694 2.72612 32.5694 7.76316C32.5694 13.5402 39.6594 13.9373 39.6594 16.8401C39.6594 18.063 38.4684 19.1544 36.434 19.1544C34.6707 19.1408 32.9375 18.6158 31.3882 17.6258L30.4646 22.7086C32.3081 23.5635 34.2724 24.0016 36.2542 24C41.1469 24 45.0042 21.1429 45.0042 16.0173C45.0042 9.91455 37.8826 9.52599 37.8826 6.83461C37.8826 5.87748 38.8549 4.83465 40.8892 4.83465C42.3257 4.85721 43.742 5.23593 45.0455 5.94605L45.9496 1.03757C44.3827 0.337331 42.7187 -0.0143545 41.0424 0.000448589ZM0.109378 0.371867L0 1.11186C1.2207 1.39059 2.41798 1.79598 3.57778 2.32326C5.76528 3.24896 5.91597 3.78895 6.28299 5.46606L10.2885 23.62H15.6601L23.924 0.371867H18.5767L13.2611 16.1773L11.0906 2.7804C10.8913 1.24614 9.87535 0.371867 8.66007 0.371867H0.109378ZM26.0872 0.371867L21.8847 23.62H26.9889L31.1767 0.371867H26.0726H26.0872ZM54.583 0.371867C53.3507 0.371867 52.6993 1.14614 52.2205 2.50326L44.7344 23.62H50.0816L51.117 20.1001H57.6431L58.2726 23.62H63L58.8681 0.371867H54.583ZM55.2806 6.65746L56.8677 15.3802H52.6142L55.2878 6.65746H55.2806Z" fill="#1434CB"/>
</svg>
